<svg id="visual" viewBox="0 0 960 540" width="960" height="540" xmlns="http://www.w3.org/2000/svg" xmlns:xlink="http://www.w3.org/1999/xlink" version="1.1"><rect x="0" y="0" width="960" height="540" fill="#F9E4AB"></rect><path d="M0 127L22.8 128.2C45.7 129.3 91.3 131.7 137 135.3C182.7 139 228.3 144 274 144.8C319.7 145.7 365.3 142.3 411.2 137.8C457 133.3 503 127.7 548.8 130.5C594.7 133.3 640.3 144.7 686 153.7C731.7 162.7 777.3 169.3 823 168.2C868.7 167 914.3 158 937.2 153.5L960 149L960 0L937.2 0C914.3 0 868.7 0 823 0C777.3 0 731.7 0 686 0C640.3 0 594.7 0 548.8 0C503 0 457 0 411.2 0C365.3 0 319.7 0 274 0C228.3 0 182.7 0 137 0C91.3 0 45.7 0 22.8 0L0 0Z" fill="#39538e"></path><path d="M0 135L22.8 134.7C45.7 134.3 91.3 133.7 137 135.3C182.7 137 228.3 141 274 134.8C319.7 128.7 365.3 112.3 411.2 103.2C457 94 503 92 548.8 94.2C594.7 96.3 640.3 102.7 686 104.8C731.7 107 777.3 105 823 110.2C868.7 115.3 914.3 127.7 937.2 133.8L960 140L960 0L937.2 0C914.3 0 868.7 0 823 0C777.3 0 731.7 0 686 0C640.3 0 594.7 0 548.8 0C503 0 457 0 411.2 0C365.3 0 319.7 0 274 0C228.3 0 182.7 0 137 0C91.3 0 45.7 0 22.8 0L0 0Z" fill="#3d6eab"></path><path d="M0 108L22.8 105.3C45.7 102.7 91.3 97.3 137 93.8C182.7 90.3 228.3 88.7 274 92.7C319.7 96.7 365.3 106.3 411.2 109.2C457 112 503 108 548.8 100.7C594.7 93.3 640.3 82.7 686 81.8C731.7 81 777.3 90 823 93.2C868.7 96.3 914.3 93.7 937.2 92.3L960 91L960 0L937.2 0C914.3 0 868.7 0 823 0C777.3 0 731.7 0 686 0C640.3 0 594.7 0 548.8 0C503 0 457 0 411.2 0C365.3 0 319.7 0 274 0C228.3 0 182.7 0 137 0C91.3 0 45.7 0 22.8 0L0 0Z" fill="#3f8ac8"></path><path d="M0 77L22.8 78.2C45.7 79.3 91.3 81.7 137 78.7C182.7 75.7 228.3 67.3 274 65.8C319.7 64.3 365.3 69.7 411.2 73.2C457 76.7 503 78.3 548.8 73.2C594.7 68 640.3 56 686 56.7C731.7 57.3 777.3 70.7 823 72.5C868.7 74.3 914.3 64.7 937.2 59.8L960 55L960 0L937.2 0C914.3 0 868.7 0 823 0C777.3 0 731.7 0 686 0C640.3 0 594.7 0 548.8 0C503 0 457 0 411.2 0C365.3 0 319.7 0 274 0C228.3 0 182.7 0 137 0C91.3 0 45.7 0 22.8 0L0 0Z" fill="#42a7e3"></path><path d="M0 52L22.8 46.8C45.7 41.7 91.3 31.3 137 29C182.7 26.7 228.3 32.3 274 35.5C319.7 38.7 365.3 39.3 411.2 39C457 38.7 503 37.3 548.8 37.5C594.7 37.7 640.3 39.3 686 39.5C731.7 39.7 777.3 38.3 823 40C868.7 41.7 914.3 46.3 937.2 48.7L960 51L960 0L937.2 0C914.3 0 868.7 0 823 0C777.3 0 731.7 0 686 0C640.3 0 594.7 0 548.8 0C503 0 457 0 411.2 0C365.3 0 319.7 0 274 0C228.3 0 182.7 0 137 0C91.3 0 45.7 0 22.8 0L0 0Z" fill="#49c5fc"></path></svg>